<svg width="512" height="512" viewBox="0 0 512 512" fill="none" xmlns="http://www.w3.org/2000/svg">
<g clip-path="url(#clip0)">
<path d="M256 0C397.385 0 512 114.615 512 256C512 397.385 397.385 512 256 512C114.615 512 0 397.385 0 256C0 114.615 114.615 0 256 0Z" fill="#FFCB7F"/>
<path d="M192.458 109.604C222.893 109.604 247.557 134.268 247.557 164.694C247.557 195.12 222.893 219.784 192.458 219.784C162.042 219.784 137.368 195.12 137.368 164.694C137.368 134.268 162.042 109.604 192.458 109.604Z" fill="#FFF7DF"/>
<path d="M10.187 327.682H501.812C470.812 434.176 372.497 512 256 512C139.503 512 41.188 434.176 10.187 327.682Z" fill="#FFA526"/>
<path d="M5.177 204.547C7.653 204.001 10.081 203.582 12.45 203.328C46.219 199.74 113.778 237.682 142.029 239.73C170.29 241.787 250.941 175.135 282.644 186.415C314.347 197.695 387.413 229.992 428.084 235.636C450.847 238.785 480.083 220.75 506.493 202.988C510.099 220.096 512 237.828 512 256C512 260.163 511.893 264.306 511.698 268.43C350.319 289.672 84.979 316.676 20.716 296.136C14.077 294.011 7.916 291.847 2.203 289.682C0.76 278.656 0 267.416 0 256C0 238.374 1.784 221.178 5.177 204.547Z" fill="#FFB54C"/>
<path d="M2.11499 280.703C2.11499 280.703 39.638 248.454 66.593 245.306C93.548 242.147 147.458 275.517 170.017 277.321C192.576 279.125 256.936 220.506 282.244 230.42C307.542 240.344 365.858 268.752 398.312 273.714C430.775 278.666 479.733 224.113 502.837 217.796C504.884 217.24 506.912 216.743 508.93 216.304C510.947 229.24 512 242.498 512 256C512 269.248 510.996 282.263 509.056 294.956L71.965 323.227L2.11499 280.703Z" fill="#F98B00"/>
<path d="M0.946045 277.964C18.776 270.623 46.443 266.1 66.623 278.032C88.928 291.222 93.13 292.372 107.597 289.282C175.126 251.477 209.948 263.848 241.836 297.832C247.363 302.053 253.632 305.358 260.388 307.951C267.134 305.358 273.412 302.053 278.93 297.832C310.828 263.848 345.65 251.477 413.179 289.282C427.646 292.372 431.848 291.222 454.143 278.032C473.533 266.568 498.373 271.149 511.299 275.01C509.963 293.162 506.737 310.778 501.814 327.682H10.187C5.53705 311.704 2.39804 295.073 0.946045 277.964Z" fill="#ED6C00"/>
<path d="M464.651 404.365C463.013 377.732 461.512 350.923 461.512 324.094C461.512 290.939 460.956 257.715 460.167 224.492L455.663 219.959L461.746 213.164L457.193 208.953L461.219 203.426L456.364 199.449L463.364 190.539L458.441 186.922L462.301 179.805L457.056 176.295L463.812 165.63L458.567 162.12L458.294 156.992C457.933 144.894 457.563 132.796 457.202 120.707C456.958 112.489 456.49 104.261 455.847 96.0228C448.458 86.8008 440.454 78.0948 431.875 69.9838C432.128 75.9208 432.421 81.8578 432.723 87.7658C436.7 163.806 441.048 240.352 437.032 316.733C435.784 340.52 441.185 362.025 439.693 385.646C438.552 403.71 435.628 421.394 434.604 439.371C445.631 428.639 455.701 416.931 464.651 404.365ZM289.331 2.15381C295.161 2.91381 300.932 3.86981 306.635 5.01981C306.401 13.5498 306.177 21.1148 306.801 25.4428C311.334 56.9508 315.614 88.9558 316.559 120.707C318.587 188.441 320.868 256.418 320.868 324.093C320.868 375.673 326.415 427.156 327.838 477.557C339.283 480.472 351.449 483.192 363.538 485.697C364.045 483.416 364.298 480.969 364.386 478.463V478.434L364.376 477.908L364.347 477.187L360.467 473.356L367.808 465.284L363.928 461.453V460.936C363.928 460.79 363.918 460.644 363.918 460.497C363.859 438.143 367.973 416.492 369.377 394.255C370.859 370.644 365.468 349.138 366.716 325.342C370.732 248.961 366.385 172.415 362.417 96.3748C361.12 71.6818 360.224 46.7058 359.804 21.9338C365.585 24.4978 371.249 27.2758 376.796 30.2498C376.855 31.6928 376.962 32.9798 377.108 34.0618C381.651 65.5698 385.931 97.5648 386.886 129.316C388.904 197.05 391.185 265.027 391.185 332.702C391.185 378.56 395.572 424.33 397.531 469.33C356.996 496.285 308.331 512 256 512C212.852 512 172.21 501.306 136.54 482.462C141.687 480.785 146.883 479.294 152.284 478.28C154.448 470.325 152.986 460.069 152.966 451.89C152.908 429.536 157.021 407.875 158.416 385.648C159.908 362.027 154.507 340.521 155.764 316.735C159.771 240.354 155.433 163.808 151.455 87.7678C150.344 66.4088 149.515 44.8348 149.037 23.3588C154.516 20.8438 160.092 18.5138 165.756 16.3788C165.736 20.0638 165.834 23.1928 166.156 25.4448C170.689 56.9528 174.979 88.9578 175.924 120.709C176.762 148.863 177.659 177.056 178.4 205.259V205.269V205.327L178.517 209.889L183.187 214.432L174.306 223.956L178.985 228.489V228.499C179.726 260.397 180.233 292.275 180.233 324.094C180.233 376.893 186.033 429.584 187.281 481.135C188.909 481.681 190.547 482.266 192.194 482.86C201.124 486.048 209.478 486.136 219.071 487.218C229.258 488.368 236.716 491.088 247.02 489.548C254.419 488.446 262.218 485.999 268.789 485.064C277.602 483.816 284.504 482.286 292.508 479.605C295.257 471.484 293.629 460.537 293.6 451.89C293.541 429.536 297.655 407.875 299.059 385.648C300.541 362.027 295.15 340.521 296.398 316.735C300.414 240.354 296.067 163.808 292.089 87.7678C290.608 59.3598 289.633 30.5618 289.331 2.15381ZM115.629 470.1C104.574 462.837 94.1139 454.746 84.3359 445.904L84.7059 442.463H114.02C114.586 451.704 115.142 460.917 115.629 470.1ZM42.2899 396.956C31.6829 380.9 22.8319 363.596 16.0169 345.298C15.2179 335.959 14.6029 326.542 15.1199 316.734C17.6939 267.815 16.8359 218.818 14.8369 169.939C20.8709 153.045 28.6219 136.969 37.8929 121.917L39.3849 123.535L31.6149 133.089L35.7969 137.603C37.6689 199.741 39.5889 262.045 39.5889 324.095C39.5889 348.437 40.8269 372.76 42.2899 396.956ZM79.4129 70.6488C85.0089 65.3258 90.8479 60.2568 96.9019 55.4508C101.026 84.5608 104.73 114.04 105.608 143.306C105.881 152.372 106.154 161.439 106.427 170.505L107.148 175.935L110.697 181.053L100.578 188.326L104.136 193.434L107.207 196.7C108.669 246.72 109.917 296.79 109.917 346.703C109.917 352.065 109.975 357.427 110.083 362.798H85.9249C85.3599 355.126 85.0179 347.356 85.4379 339.343C89.4539 262.952 85.1069 186.406 81.1389 110.366C80.4459 97.1838 79.8709 83.9258 79.4129 70.6488Z" fill="#AF3510"/>
<path d="M337.704 446.333C337.402 440.24 337.187 434.118 337.158 427.928C336.992 401.148 333.902 377.752 333.902 350.777C333.902 333.015 333.6 323.344 333.229 303.749C337.275 300.834 341.077 297.685 344.547 294.03C349.197 289.126 355.163 284.047 358.556 278.12C359.862 275.839 360.535 272.787 360.954 270.224C361.237 268.469 361.178 261.743 358.965 266.276C357.922 268.401 358.712 271.501 357.571 273.86C356.255 276.58 354.052 278.871 351.712 280.704C350.513 281.64 349.216 282.683 347.842 283.024C347.189 281.484 349.753 273.032 346.039 274.416C342.802 275.635 344.391 282.585 343.826 285.042C342.988 288.678 338.62 291.32 335.579 293.367C334.916 293.806 334.048 294.283 333.074 294.781C333.016 291.476 332.967 287.928 332.908 284.048C332.742 272.691 332.713 260.924 332.694 249.109L328.015 244.859L335.677 234.828L330.998 230.578L330.14 226.113L335.96 218.08L332.48 213.459L332.46 210.856L332.45 210.242V209.628C332.421 208.078 332.391 206.538 332.362 205.007C332.157 194.732 331.953 184.506 331.826 174.26C335.911 171.326 339.742 168.157 343.242 164.472C347.892 159.568 353.868 154.489 357.251 148.562C358.557 146.271 359.24 143.229 359.649 140.666C359.932 138.911 359.873 132.175 357.66 136.708C356.617 138.853 357.407 141.943 356.266 144.302C354.95 147.022 352.747 149.313 350.407 151.146C349.218 152.072 347.921 153.125 346.537 153.466C345.884 151.916 348.457 143.464 344.734 144.858C341.497 146.077 343.086 153.027 342.521 155.484C341.683 159.12 337.315 161.762 334.274 163.809C333.611 164.257 332.734 164.735 331.749 165.232C331.739 163.039 331.72 160.855 331.72 158.652C331.72 140.325 334.06 124.493 334.908 106.565C335.269 98.8927 335.444 91.1427 335.532 83.3627C338.769 80.8967 341.83 78.2447 344.686 75.2417C349.336 70.3377 355.302 65.2587 358.695 59.3317C360.001 57.0507 360.674 53.9987 361.083 51.4447C361.366 49.6797 361.307 42.9437 359.094 47.4767C358.051 49.6217 358.85 52.7117 357.7 55.0707C356.384 57.7907 354.19 60.0817 351.841 61.9047C350.652 62.8407 349.345 63.8937 347.981 64.2347C347.328 62.6947 349.892 54.2427 346.177 55.6267C342.94 56.8457 344.52 63.7867 343.954 66.2527C343.125 69.8887 338.748 72.5307 335.707 74.5777C335.668 74.5967 335.619 74.6267 335.571 74.6657C335.61 54.6907 335.191 34.5697 335.668 14.8967L335.736 12.6837C332.022 11.4647 328.278 10.3247 324.496 9.28169C324.204 15.8817 323.892 22.4717 323.619 29.0127C322.556 28.4767 321.591 27.9597 320.88 27.4727C317.829 25.4357 313.471 22.7837 312.623 19.1567C312.058 16.6907 313.647 9.7397 310.41 8.5307C306.696 7.1367 309.26 15.5887 308.607 17.1387C307.232 16.7977 305.936 15.7447 304.747 14.8087C302.398 12.9857 300.204 10.6847 298.888 7.9647C298.225 6.6097 298.215 4.9917 298.118 3.4707C297.211 3.3147 296.305 3.1587 295.398 3.0127C295.418 3.5587 295.456 4.0267 295.505 4.3387C295.914 6.9027 296.587 9.9437 297.893 12.2347C301.295 18.1617 307.252 23.2407 311.902 28.1347C315.402 31.8197 319.223 34.9877 323.288 37.9027C323.21 40.3207 323.142 42.7287 323.093 45.1167C322.518 70.9997 322.167 96.7947 321.601 122.609C319.417 121.527 317.204 120.474 315.849 119.577C312.807 117.53 308.44 114.888 307.602 111.252C307.037 108.786 308.626 101.835 305.389 100.626C301.675 99.2417 304.239 107.694 303.586 109.234C302.211 108.893 300.915 107.84 299.726 106.914C297.377 105.081 295.183 102.79 293.867 100.07C292.717 97.7107 293.506 94.6107 292.473 92.4757C290.25 87.9427 290.192 94.6787 290.484 96.4337C290.893 98.9977 291.566 102.039 292.872 104.33C296.265 110.257 302.231 115.336 306.881 120.24C311.18 124.763 315.967 128.507 321.104 131.987L321.396 131.743C320.977 149.222 320.441 166.711 319.651 184.249C319.164 194.963 318.637 205.647 318.14 216.322C316.99 215.737 315.956 215.191 315.196 214.674C312.154 212.627 307.787 209.985 306.949 206.349C306.384 203.892 307.973 196.942 304.736 195.733C301.022 194.339 303.586 202.791 302.933 204.341C301.558 203.99 300.262 202.947 299.063 202.011C296.723 200.178 294.52 197.887 293.204 195.167C292.063 192.808 292.853 189.717 291.81 187.583C289.597 183.05 289.539 189.786 289.821 191.541C290.23 194.105 290.903 197.146 292.219 199.428C295.612 205.365 301.578 210.434 306.228 215.338C309.757 219.062 313.617 222.25 317.731 225.194C316.707 247.733 315.869 270.272 315.849 293.025C315.82 323.265 317.087 352.492 316.366 382.742C316.317 384.633 316.278 386.534 316.239 388.445L316.083 397.414C315.839 413.597 315.839 429.984 316.122 446.333H337.704ZM72.4129 434.391C54.4459 415.898 39.2379 394.714 27.4719 371.473C28.0079 345.191 25.9119 319.493 25.9609 293.025C26.0099 266.158 28.5439 239.593 31.2839 212.959C27.7059 209.235 25.0549 202.694 22.1879 199.135C18.5129 194.582 13.9409 190.303 9.62195 186.247C10.2259 184.112 10.8499 181.997 11.5029 179.881C15.5189 183.225 22.6649 187.621 27.2469 189.132C28.6609 189.6 31.215 191.179 33.379 192.622C33.6619 189.834 33.9439 187.046 34.2169 184.248C36.2739 163.084 37.5409 141.988 38.5259 120.911C47.31 106.795 57.4289 93.6047 68.7079 81.5067C68.5619 89.9097 68.1719 98.2747 67.3239 106.561C66.9539 110.188 66.4469 113.736 65.8709 117.246C67.0989 116.612 68.2009 116.008 69.0299 115.452C72.7929 112.927 78.1939 109.661 79.2269 105.177C79.6359 103.373 79.1199 99.6197 79.4609 96.5487C74.7039 91.3627 72.7539 84.0407 74.9179 76.6907C75.2009 75.7257 75.8639 74.5757 76.6529 73.3467C92.4069 57.8657 110.159 44.4127 129.481 33.4067C135.983 39.6357 139.044 49.8237 136.188 58.3727C134.034 64.8657 129.247 71.3287 124.685 76.0857C122.228 78.6497 119.284 81.5057 116.165 83.1147C113.816 84.3237 110.433 83.9917 108.444 85.0547C103.414 87.7647 103.375 95.4567 97.6719 98.5667C96.9699 98.9467 96.297 99.2297 95.6349 99.4347C91.336 105.577 85.1159 111.007 80.1149 116.271C75.1039 121.555 69.547 125.971 63.601 130.065C62.1 138.342 60.735 146.618 60.452 155.421L61.8359 160.432L65.8909 165.248L56.698 173.856L60.7529 178.662C61.0259 187.436 61.4259 196.2 61.8059 205.003C62.9079 230.73 62.1859 258.416 62.9859 284.045C64.0679 318.487 65.1399 327.924 65.1399 350.775C65.1399 377.75 71.8569 401.146 72.1979 427.926C72.2279 430.092 72.306 432.246 72.4129 434.391ZM84.1889 102.683C83.8869 101.981 84.1309 100.119 84.3249 98.1297C86.0699 98.5877 87.7179 99.1437 89.3359 99.5047C89.2089 99.6017 89.0919 99.7097 88.966 99.8067C87.4849 100.957 85.8859 102.264 84.1889 102.683Z" fill="#992C0A"/>
<path d="M207.871 327.682C224.746 371.385 218.468 468.804 176.48 499.385C201.515 507.564 228.236 512 256 512C291.787 512 325.839 504.65 356.772 491.391C374.544 418.744 330.012 389.059 286.006 327.682H207.871Z" fill="#FCC86C"/>
<path d="M35.3 385.755C38.654 387.091 42.134 388.485 45.663 389.947L51.639 387.861L56.7471 399.442L58.57 398.808L64.029 396.897L70.863 406.246L76.3321 404.335L85.194 408.147C86.062 408.605 86.92 409.063 87.768 409.522L94.085 408.089L97.3311 420.636L103.648 419.213L109.604 423.239C110.706 424.087 111.739 424.926 112.724 425.764L118.875 426.846L118.427 432.52L124.383 433.358L123.642 445.359L126.099 445.71L132.172 443.585L133.595 447.173L139.327 445.964L143.002 457.097L148.734 455.888L154.037 456.717C173.291 460.821 193.412 459.096 193.412 459.096L224.471 493.119L229.901 494.542L230.223 496.999L236.004 498.608L234.308 510.501L237.233 511.32C151.114 505.069 76.819 456.228 35.3 385.755Z" fill="#FF8D00"/>
<path d="M489.364 361.393C481.663 363.401 473.493 365.721 465.567 368.305L464.426 368.685L461.657 373.355L450.816 372.741L448.047 377.411L446.819 378.669L445.708 379.8L435.842 378.854L434.311 384.459L431.113 387.013L430.557 387.461L430.333 387.636L422.661 388.377L422.671 394.285L419.483 397.249L418.664 398.009L416.578 399.023L418.84 404.131L425.089 402.649L427.984 415.157L434.233 413.675L439.517 414.669C441.184 414.874 442.256 414.932 442.256 414.932L438.006 420.645L437.947 420.733L437.889 420.801L437.85 421.571L438.25 427.878L437.86 427.917L437.197 433.074L427.127 430.52L426.464 435.667L428.336 444.392L428.726 444.938C454.2 421.64 474.955 393.261 489.364 361.393Z" fill="#F37E16"/>
<path d="M73.593 346.185C73.593 346.185 92.827 348.115 107.177 352.366L107.703 352.522L113.971 351.05L116.623 363.665L122.891 362.193L114.166 369.972C112.421 370.352 111.124 370.479 111.124 370.479C111.124 370.479 110.461 371.483 109.34 372.867L108.921 373.384L106.767 378.093L97.369 373.716L95.215 378.425L91.384 372.79L90.877 372.039L90.614 371.649L90.517 371.376L84.765 373.881L79.9 369.923L76.244 368.11L81.44 356.363L75.679 353.507L74.402 349.188L74.353 349.042C73.885 347.306 73.593 346.185 73.593 346.185Z" fill="#F37E16"/>
<path d="M238.326 361.13C237.761 361.257 237.263 361.471 236.903 361.803C236.903 361.803 236.796 361.813 236.611 361.832C237.196 361.549 237.479 361.023 237.479 361.023C237.479 361.023 237.78 361.061 238.326 361.13ZM234.748 308.916C242.401 307.044 239.447 309.403 238.345 312.767C237.458 315.467 236.863 318.138 235.489 319.455C235.84 319.708 236.181 320.001 236.532 320.313L237.994 321.073L237.058 321.18L239.758 323.091L238.569 323.033L241.113 325.002L239.261 324.953L241.298 326.825L240.362 327.108C244.544 327.176 248.483 328.96 252.06 331.202C254.312 332.606 256.457 334.517 258.192 336.729C258.192 333.921 258.29 328.686 259.128 326.98C259.128 326.98 259.528 330.46 259.732 330.918C259.732 330.918 259.927 322.758 263.154 318.83L262.803 322.408C262.803 322.408 267.687 314.755 270.963 313.644L269.043 317.017C269.043 317.017 276.949 311.977 281.229 311.831L277.856 314.756C277.856 314.756 288.082 311.783 292.362 313.898C292.362 313.898 289.74 314.2 289.496 314.697C289.496 314.697 295.384 316.062 297.197 318.479C299.01 320.896 298.903 320.994 298.903 320.994L295.481 319.132C295.481 319.132 300.414 324.718 301.174 327.74L297.703 324.221C297.703 324.221 300.871 331.464 300.969 334.34L298.308 330.558C298.308 330.558 300.365 339.478 299.468 341.535L297.645 336.602C297.645 336.602 296.748 341.437 295.783 343.251C294.828 345.064 294.574 345.669 294.574 345.669L294.282 342.091L293.424 343.349L290.548 338.972V340.483L286.727 335.345L286.776 337.304C286.776 337.304 282.292 334.087 280.888 334.233L283.15 336.154C283.15 336.154 276.804 334.594 275.293 335.442L277.867 336.456C277.867 336.456 273.734 336.953 273.285 337.86L275.751 338.065L272.076 340.083L273.987 340.385L271.17 342.744L273.129 342.949C273.129 342.949 270.565 345.766 269.2 346.527C267.845 347.278 267.689 347.482 267.689 347.482L269.658 347.326L266.704 349.042L265.368 351.713L267.688 351.206L264.266 353.165L263.008 354.832L264.821 355.085L262.862 356.294C262.862 356.294 261.088 358.79 257.9 359.131C256.223 360.564 254.615 361.237 254.741 361.5C255.092 362.231 258.241 363.791 257.003 365.36C255.775 366.91 239.992 364.648 239.992 364.648C239.992 364.648 239.475 365.75 238.393 365.769C237.311 365.789 237.418 365.126 237.418 365.126C237.418 365.126 236.921 365.389 236.316 365.019C235.702 364.649 235.848 364.083 235.848 364.083C235.848 364.083 234.746 364.541 234.678 363.215C234.639 362.552 235.204 362.201 235.78 362.006C234.795 361.996 234.903 361.441 234.903 361.441C234.903 361.441 234.406 361.675 233.792 361.344C233.188 361.022 233.334 360.525 233.334 360.525C233.334 360.525 232.232 360.925 232.154 359.765C232.086 358.605 234.386 358.517 234.386 358.517C234.951 358.049 235.868 357.854 236.833 357.796C233.343 354.745 232.807 351.157 232.914 348.827C232.183 348.379 231.617 347.959 231.617 347.959L231.539 348.583L230.359 347.004L230.476 347.959C229.677 347.355 228.867 346.029 228.867 346.029V346.848C228.867 346.848 228.516 346.848 227.639 345.971C226.752 345.084 226.323 341.233 226.323 341.233C225.923 342.247 223.964 342.471 223.964 342.471C223.964 342.471 223.009 344.05 222.277 344.05C221.546 344.05 221.292 343.553 221.292 343.553C219.859 343.699 219.986 342.617 219.986 342.617C219.557 342.188 219.655 340.96 220.21 339.848C220.766 338.746 223.729 336.553 226.352 336.095C228.974 335.647 229.754 341.944 229.754 341.944L230.349 341.028C230.008 339.926 229.793 338.698 229.823 337.392L227.864 335.277C227.864 335.277 226.558 336.076 225.544 335.881C224.54 335.676 224.335 334.36 224.335 334.36C224.335 334.36 223.662 335.12 222.249 334.691C220.835 334.262 220.962 332.839 220.962 332.839C220.962 332.839 220.66 333.307 219.734 332.839C219.617 332.907 219.481 332.946 219.334 332.946C218.895 332.946 218.544 332.576 218.544 332.117C218.544 331.864 218.661 331.63 218.846 331.474C218.807 330.129 219.655 327.964 219.831 325.8C220.055 323.148 222.141 320.584 224.988 319.122C225.378 318.927 225.778 318.742 226.177 318.566C225.446 315.758 225.251 311.41 229.765 309.022C234.66 306.43 235.05 307.083 234.748 308.916Z" fill="#792511"/>
</g>
<defs>
<clipPath id="clip0">
<rect width="512" height="512" fill="white"/>
</clipPath>
</defs>
</svg>
