<svg width="512" height="512" viewBox="0 0 512 512" fill="none" xmlns="http://www.w3.org/2000/svg">
<g clip-path="url(#clip0)">
<path d="M256 0C397.386 0 512 114.614 512 256C512 397.386 397.386 512 256 512C114.614 512 0 397.386 0 256C0 114.614 114.614 0 256 0Z" fill="#7FC9C3"/>
<path d="M55.137 262.157L55.144 267.121C55.172 279.722 56.124 282.489 57.89 290.002L58.023 289.986C73.155 378.656 146.441 447.48 237.245 455.813L238.003 455.884C239.201 455.982 240.406 456.081 241.611 456.168L243.205 456.269C244.234 456.34 245.255 456.392 246.289 456.447C246.95 456.477 247.622 456.487 248.289 456.523C249.212 456.548 250.124 456.592 251.047 456.619C252.112 456.637 253.177 456.644 254.245 456.653C254.765 456.664 255.294 456.673 255.811 456.673L256.042 456.668C257.552 456.668 259.059 456.643 260.55 456.618L261.269 456.602C262.691 456.556 264.1 456.503 265.506 456.437L266.709 456.382C267.959 456.309 269.22 456.228 270.465 456.139L272.234 456.002C273.054 455.931 273.862 455.86 274.673 455.782C364.688 447.39 437.44 379.561 453.28 291.918C455.206 284.395 455.227 282.048 456.196 270.125H456.205L456.423 270.118H456.428C456.458 269.36 456.474 268.618 456.487 267.869V267.812V267.757V267.709V267.592V267.537V267.489V267.43V267.373V267.213V267.156V267.1V267.05V266.993H456.489V266.934V266.881V266.828V266.769V266.714V266.662V266.607C457.754 251.647 455.802 227.062 450.724 208.043L450.458 207.023C428.598 119.871 349.744 55.3232 255.812 55.3232C159.606 55.3232 79.223 123.038 59.685 213.405H59.683C56.456 224.274 55.507 238.112 55.246 250.037C55.184 252.023 55.145 254.011 55.145 256.002V256.382C55.137 258.414 55.137 260.343 55.137 262.157Z" fill="#8CCEC9"/>
<path d="M106.454 260.584L106.459 264.278C106.479 273.66 107.19 275.72 108.505 281.314L108.603 281.303C119.869 347.321 174.434 398.559 242.039 404.765L242.605 404.818C243.496 404.891 244.392 404.964 245.29 405.028L246.476 405.104C247.241 405.157 248.004 405.196 248.771 405.237C249.264 405.26 249.763 405.267 250.26 405.294C250.947 405.312 251.628 405.345 252.315 405.365C253.107 405.379 253.9 405.385 254.694 405.39C255.081 405.399 255.475 405.406 255.86 405.406L256.034 405.404C257.156 405.404 258.279 405.386 259.39 405.365L259.926 405.354C260.984 405.319 262.033 405.28 263.08 405.23L263.973 405.188C264.905 405.133 265.845 405.074 266.772 405.007L268.086 404.906C268.698 404.853 269.298 404.8 269.903 404.741C336.919 398.494 391.086 347.995 402.881 282.74C404.315 277.142 404.331 275.394 405.05 266.516H405.057L405.219 266.511H405.224C405.244 265.945 405.256 265.393 405.268 264.837V264.793V264.754V264.717V264.63V264.589V264.552V264.508V264.464V264.345V264.301V264.26V264.223V264.182H405.271V264.138V264.096V264.057V264.013V263.972V263.933V263.891C406.21 252.754 404.757 234.449 400.978 220.289L400.781 219.529C384.504 154.645 325.795 106.588 255.86 106.588C184.233 106.588 124.388 157.004 109.84 224.282H109.837C107.435 232.374 106.729 242.678 106.534 251.556C106.488 253.033 106.458 254.513 106.458 255.998V256.28C106.454 257.795 106.454 259.234 106.454 260.584Z" fill="#98D3CE"/>
<path d="M162.611 258.861L162.616 261.17C162.628 267.027 163.07 268.314 163.892 271.807L163.954 271.8C170.989 313.026 205.064 345.024 247.282 348.9L247.634 348.932C248.191 348.978 248.752 349.024 249.311 349.065L250.053 349.111C250.53 349.145 251.006 349.168 251.487 349.193C251.794 349.209 252.106 349.213 252.417 349.23C252.845 349.241 253.269 349.262 253.698 349.274C254.195 349.283 254.69 349.287 255.186 349.29C255.427 349.297 255.672 349.299 255.912 349.299H256.022C256.723 349.299 257.424 349.287 258.116 349.274L258.452 349.267C259.112 349.247 259.767 349.221 260.422 349.192L260.979 349.164C261.563 349.13 262.148 349.093 262.727 349.052L263.549 348.987C263.931 348.955 264.305 348.923 264.683 348.887C306.535 344.984 340.361 313.448 347.725 272.698C348.621 269.201 348.63 268.11 349.081 262.567H349.086L349.187 262.562H349.189C349.203 262.209 349.209 261.866 349.217 261.517V261.489V261.464V261.441V261.388V261.361V261.338V261.313V261.285V261.209V261.184V261.156V261.134V261.108H349.219V261.081V261.056V261.03V261.003V260.977V260.952V260.927C349.805 253.973 348.899 242.542 346.537 233.699L346.413 233.225C336.25 192.706 299.586 162.694 255.913 162.694C211.184 162.694 173.811 194.179 164.726 236.193C163.226 241.247 162.784 247.68 162.663 253.224C162.635 254.147 162.617 255.073 162.617 255.998V256.175C162.611 257.12 162.611 258.018 162.611 258.861Z" fill="#A2D7D3"/>
<path d="M270.277 44.7202C342.624 44.7202 401.271 103.367 401.271 175.714C401.271 248.061 342.624 306.708 270.277 306.708C197.93 306.708 139.283 248.06 139.283 175.713C139.283 103.366 197.93 44.7202 270.277 44.7202Z" fill="white"/>
<path d="M186.613 145.079C206.576 145.079 222.759 161.262 222.759 181.225C222.759 201.191 206.576 217.373 186.613 217.373C166.648 217.373 150.465 201.19 150.465 181.225C150.464 161.262 166.648 145.079 186.613 145.079Z" fill="#F9F9F9"/>
<path d="M490.04 359.859C447.922 351.544 405.69 335.855 363.119 339.097C331.762 341.486 301.922 354.082 270.619 357.118C204.546 363.518 138.711 326.973 73.4191 338.971C55.6621 342.235 37.5501 349.048 19.5801 354.329C58.1291 446.909 149.456 512 256 512C360.409 512 450.205 449.488 490.04 359.859Z" fill="#4CB5AB"/>
<path d="M285.123 147.871C305.086 147.871 321.269 164.054 321.269 184.017C321.269 203.983 305.086 220.165 285.123 220.165C265.158 220.165 248.975 203.982 248.975 184.017C248.974 164.055 265.158 147.871 285.123 147.871Z" fill="#F9F9F9"/>
<path d="M97.8779 437.722C97.8779 437.722 170.907 438.517 272.172 406.389C318.541 391.676 365.869 377.866 414.474 380.195C434.879 381.171 455.181 384.091 475.295 388.144C430.472 462.371 349.036 512 256 512C196.32 512 141.412 491.577 97.8789 457.341V437.722H97.8779Z" fill="#00877A"/>
<path d="M433.585 440.372C401.012 438.526 317.375 431.546 238.083 406.389C191.714 391.676 144.385 377.866 95.7809 380.195C75.9049 381.146 56.1279 383.94 36.5229 387.832C81.306 462.232 162.836 512 256 512C324.966 512 387.555 484.718 433.585 440.372Z" fill="#26A599"/>
<path d="M417.693 454.466C366.687 447.977 315.531 439.639 265.772 433.342C229.812 428.791 193.242 425.65 157.412 431.15C133.999 434.744 111.384 441.95 89.094 450.105C133.91 488.676 192.229 512 256 512C317.327 512 373.608 490.425 417.693 454.466Z" fill="#00786A"/>
<path d="M326.661 361.914C316.837 350.053 317.267 334.504 318.628 325.509C319.189 323.072 319.7 320.639 320.2 318.218L320.202 318.211H320.2C321.648 311.169 322.994 304.181 325.177 297.167C326.446 293.088 323.51 281.185 322.582 278.449C320.36 271.884 315.933 270.248 311.397 266.331C305.206 260.978 297.743 259.254 290.016 259.467C282.732 259.668 275.421 259.132 268.134 258.734C267.266 258.686 266.178 257.619 265.697 256.748C265.061 255.593 264.733 254.185 264.618 252.858C264.509 251.557 264.332 249.667 265.061 249.014C267.113 247.168 269.45 245.02 271.987 244.488C275.471 243.757 278.302 243.313 280.721 240.008C283.505 236.205 283.642 231.663 279.147 230.514C274.618 229.355 273.311 225.211 270.024 223.088C269.653 222.847 269.533 221.629 269.793 221.111C270.812 219.073 270.402 217.487 268.041 216.047C269.341 215.701 270.143 215.595 270.849 215.275C273.153 214.228 275.801 213.527 277.622 211.91C280.749 209.134 283.658 205.986 286.076 202.58C288.117 199.705 289.81 196.843 293.518 195.839C294.57 195.555 295.582 194.589 296.301 193.684C300.775 188.063 305.179 182.384 309.552 176.681C310.209 175.824 310.665 174.782 311.069 173.762C313.011 168.847 311.878 164.27 309.49 159.833C309.11 160.98 309.133 162.108 309.106 163.23C309.064 165.042 309.307 166.934 308.875 168.652C306.083 179.755 297.47 184.146 288.06 186.052C285.946 186.478 285.733 185.317 286.347 183.613C288.081 178.787 289.551 173.857 291.547 169.144C293.063 165.556 294.676 161.761 297.198 158.898C304.342 150.794 303.967 142.192 300.095 133.028C299.852 132.454 299.731 131.823 299.552 131.218C298.008 132.801 298.226 134.313 298.288 135.428C298.473 138.803 298.969 142.186 298.833 145.546C298.707 148.587 297.72 151.504 294.87 153.301C293.246 154.33 292.238 154.415 291.489 152.119C289.815 146.99 287.833 141.962 285.893 136.925C285.559 136.062 284.81 135.358 284.253 134.582C283.545 135.613 283.433 136.311 283.463 137.006C283.619 140.756 283.83 144.503 283.983 148.255C284.073 150.39 284.155 152.495 281.652 153.608C281.217 153.803 280.965 154.962 281.029 155.64C281.326 158.813 279.116 160.64 276.079 159.575C275.046 159.211 273.371 158.636 272.37 158.185C264.58 153.997 259.446 146.656 252.522 141.319C252.568 142.368 252.875 143.181 253.386 143.834C259.087 151.107 264.788 158.377 272.54 163.676C274.842 165.251 277.154 166.555 280.148 166.251C283.089 165.951 283.783 166.635 283.483 169.67C282.518 179.422 279.037 187.45 269.23 191.699C265.634 193.259 262.459 195.93 259.323 198.39C255.584 201.322 251.219 202.007 246.77 202.387C245.808 202.472 244.455 201.62 243.856 200.786C243.568 200.385 244.399 198.777 245.104 198.138C248.835 194.748 250.437 190.309 251.451 185.608C252.12 182.503 251.433 179.571 249.534 176.954C249.277 177.41 249.188 177.854 249.291 178.248C251.034 184.973 245.624 192.952 239.711 195.403C237.23 196.431 235.006 196.406 232.557 195.462C230.89 194.818 229.078 194.404 227.296 194.232C225.763 194.081 225.157 193.483 224.641 192.049C223.755 189.582 222.534 185.754 221.421 183.372C221.073 183.512 220.23 183.737 220.324 185.301C220.885 187.14 221.339 189.021 222.037 190.81C222.807 192.777 222.461 193.98 220.177 193.762C211.159 192.889 202.422 191.066 194.886 185.594C194.238 185.124 193.555 184.501 193.251 183.791C191.345 179.349 189.071 175 189.586 169.894C189.705 168.708 189.435 167.482 189.346 166.272C188.991 165.276 188.521 165.351 188.12 165.322C187.742 169.086 187.385 173.711 187.009 177.473C186.72 177.496 186.429 177.517 186.14 177.538C180.219 171.348 175.848 164.358 176.584 155.293C177.07 149.296 178.158 143.348 179.006 137.383C179.271 135.505 179.64 133.64 179.961 131.771C179.615 131.664 179.269 131.555 178.921 131.448C177.842 134.009 176.745 136.558 175.694 139.131C174.585 141.832 173.626 144.601 172.368 147.228C172.045 147.904 170.632 148.715 170.068 148.509C165.519 146.846 161.726 144.434 161.556 138.802C161.474 136.014 161.801 133.992 161.533 131.211C161.307 129.686 160.333 129.211 160.106 129.136C159.698 130.492 158.908 132.959 158.957 134.297C159.106 138.489 159.454 142.68 159.955 146.847C160.26 149.381 160.434 154.612 160.972 157.118C153.537 153.687 154.148 144.611 150.037 139.872C149.858 143.161 149.673 146.498 150.654 149.447C152.624 155.384 156.25 160.311 161.548 163.882C162.426 164.476 163.124 165.366 163.821 166.191C164.982 167.565 165.915 169.176 167.227 170.376C170.995 173.826 175.056 176.96 178.726 180.506C190.127 191.512 203.55 198.15 219.344 199.898C223.875 200.399 224.328 201.284 223.348 205.801C222.352 210.394 221.734 215.032 224.59 219.341C224.94 219.87 225.021 220.787 224.851 221.423C223.767 225.462 222.569 229.468 221.429 233.49C220.433 237.002 219.34 240.49 218.508 244.043C216.909 250.869 215.439 257.722 213.984 264.581C213.746 265.713 213.764 266.929 213.849 268.088C214.204 273.003 214.772 277.903 214.992 282.823C215.301 289.755 215.26 296.702 215.579 303.631C215.75 307.37 216.163 311.124 216.806 314.81C217.672 319.765 218.875 324.513 222.75 328.345C226.346 331.902 228.188 336.373 227.91 341.763C227.759 344.688 228.712 347.726 229.466 350.635C230.699 355.4 232.792 360.024 233.396 364.851C234.248 371.617 234.021 378.517 234.361 385.354C234.475 387.627 234.91 389.885 235.206 392.146C235.36 393.321 235.678 394.494 235.676 395.662C235.669 397.098 235.654 398.532 235.632 399.968C235.426 404.432 234.936 414.387 234.512 416.609C234.512 416.609 230.904 420.045 230.904 423.206H237.911C237.911 423.206 238.243 419.908 239.975 417.159C239.975 417.159 240.72 403.023 242.192 395.556L242.16 395.565C242.234 395.111 242.302 394.658 242.362 394.197C242.852 390.404 244.348 386.693 244.47 382.913C244.756 374.055 244.461 365.174 244.465 356.307C244.465 354.397 244.767 352.489 244.893 350.578C245.035 348.464 246.707 341.991 255.627 341.273C259.17 340.581 263.133 343.028 263.559 346.551C264.26 352.353 264.663 358.203 264.871 364.047C264.97 366.835 264.431 369.664 264.003 372.451C263.453 376.033 261.926 379.646 263.813 383.185C266.655 388.518 264.99 394.391 265.584 400.168C265.382 404.724 264.919 414.421 264.555 416.608C264.555 416.608 261.41 420.044 261.41 423.205H267.593C267.593 423.205 267.95 419.907 269.46 417.158C269.46 417.158 269.847 407.741 270.687 400.219C270.756 400.187 270.82 400.152 270.864 400.12C270.864 400.109 270.793 400.098 270.704 400.079C270.887 398.439 271.093 396.888 271.322 395.555L271.185 395.605C271.844 392.465 272.589 388.131 272.486 381.614C272.349 373.024 274.302 364.938 276.366 356.79C276.522 356.169 277.076 355.652 277.445 355.086C277.988 355.507 278.659 355.835 279.055 356.369C281.02 359.001 282.674 361.91 284.875 364.32C290.136 370.077 298.33 377.358 299.747 385.213C299.926 386.2 300.336 387.655 300.641 388.977C300.652 402.487 297.824 416.29 297.824 416.29C293.975 419.266 291.229 423.205 291.229 423.205H300.572C301.396 418.258 302.736 418.486 302.736 418.486C302.736 418.486 304.326 412.402 306.128 404.2L306.229 404.303C306.307 403.822 306.362 403.369 306.406 402.926C309.331 389.409 312.625 370.936 310.579 363.91C310.627 363.615 310.678 363.332 310.723 363.063C311.477 364.838 312.366 366.517 313.396 368.057C322.091 381.024 314.862 416.29 314.862 416.29C311.013 419.266 308.267 423.205 308.267 423.205H317.61C318.434 418.258 319.774 418.486 319.774 418.486C319.774 418.486 332.667 369.161 326.661 361.914ZM296.448 188.722C295.452 193.125 287.42 194.941 283.071 192.898C287.436 191.537 291.8 190.174 296.448 188.722ZM279.149 199.376C274.506 200.837 269.858 202.299 264.729 203.913C266.047 199.729 274.781 196.984 279.149 199.376Z" fill="#006064"/>
<path d="M387.951 118.109C382.282 121.343 375.722 123.194 368.728 123.194C347.281 123.194 329.896 105.808 329.896 84.3611C329.896 76.3351 332.335 68.8741 336.509 62.6831C358.631 75.6751 376.601 94.9711 387.951 118.109Z" fill="#F9F9F9"/>
<path d="M93.8969 100.285C96.2399 100.285 98.1389 102.184 98.1389 104.527C98.1389 106.87 96.2399 108.769 93.8969 108.769C91.5539 108.769 89.6549 106.87 89.6549 104.527C89.6549 102.184 91.5539 100.285 93.8969 100.285ZM470.672 203.224C473.016 203.224 474.914 205.123 474.914 207.466C474.914 209.809 473.015 211.708 470.672 211.708C468.329 211.708 466.43 209.809 466.43 207.466C466.43 205.123 468.329 203.224 470.672 203.224ZM61.7779 179.079C64.1209 179.079 66.0199 180.978 66.0199 183.321C66.0199 185.665 64.1209 187.563 61.7779 187.563C59.4349 187.563 57.5359 185.664 57.5359 183.321C57.5359 180.977 59.4349 179.079 61.7779 179.079ZM431.885 95.345C434.228 95.345 436.127 97.244 436.127 99.587C436.127 101.93 434.228 103.829 431.885 103.829C429.542 103.829 427.643 101.93 427.643 99.587C427.643 97.244 429.542 95.345 431.885 95.345ZM423.401 172.921C425.744 172.921 427.643 174.82 427.643 177.163C427.643 179.506 425.744 181.405 423.401 181.405C421.057 181.405 419.159 179.506 419.159 177.163C419.159 174.82 421.057 172.921 423.401 172.921ZM338.547 32.614C340.89 32.614 342.789 34.513 342.789 36.856C342.789 39.199 340.89 41.098 338.547 41.098C336.203 41.098 334.305 39.199 334.305 36.856C334.305 34.513 336.203 32.614 338.547 32.614ZM198.952 30.793C201.295 30.793 203.194 32.692 203.194 35.035C203.194 37.378 201.295 39.277 198.952 39.277C196.609 39.277 194.71 37.378 194.71 35.035C194.71 32.692 196.609 30.793 198.952 30.793ZM113.097 172.921C115.44 172.921 117.339 174.82 117.339 177.163C117.339 179.506 115.44 181.405 113.097 181.405C110.754 181.405 108.855 179.506 108.855 177.163C108.855 174.82 110.754 172.921 113.097 172.921Z" fill="white"/>
</g>
<defs>
<clipPath id="clip0">
<rect width="512" height="512" fill="white"/>
</clipPath>
</defs>
</svg>
