<?xml version="1.0" encoding="UTF-8"?>
<svg width="512px" height="512px" viewBox="0 0 512 512" version="1.1" xmlns="http://www.w3.org/2000/svg" xmlns:xlink="http://www.w3.org/1999/xlink">
    <!-- Generator: Sketch 60.1 (88133) - https://sketch.com -->
    <title>Group</title>
    <desc>Created with Sketch.</desc>
    <defs>
        <linearGradient x1="50%" y1="-83.8022079%" x2="50%" y2="135.376179%" id="linearGradient-1">
            <stop stop-color="#FF7676" offset="0%"></stop>
            <stop stop-color="#E02020" offset="100%"></stop>
        </linearGradient>
        <linearGradient x1="50%" y1="-83.8022079%" x2="50%" y2="135.376179%" id="linearGradient-2">
            <stop stop-color="#FF7676" offset="0%"></stop>
            <stop stop-color="#E02020" offset="100%"></stop>
        </linearGradient>
        <linearGradient x1="50%" y1="-83.8022079%" x2="50%" y2="135.376179%" id="linearGradient-3">
            <stop stop-color="#FF7676" offset="0%"></stop>
            <stop stop-color="#E02020" offset="100%"></stop>
        </linearGradient>
        <linearGradient x1="50%" y1="-83.8022079%" x2="50%" y2="135.376179%" id="linearGradient-4">
            <stop stop-color="#FF7676" offset="0%"></stop>
            <stop stop-color="#E02020" offset="100%"></stop>
        </linearGradient>
        <linearGradient x1="50%" y1="-83.8022079%" x2="50%" y2="135.376179%" id="linearGradient-5">
            <stop stop-color="#FF7676" offset="0%"></stop>
            <stop stop-color="#E02020" offset="100%"></stop>
        </linearGradient>
        <linearGradient x1="50%" y1="-83.8022079%" x2="50%" y2="135.376179%" id="linearGradient-6">
            <stop stop-color="#FF7676" offset="0%"></stop>
            <stop stop-color="#E02020" offset="100%"></stop>
        </linearGradient>
        <linearGradient x1="50%" y1="-83.8022079%" x2="50%" y2="135.376179%" id="linearGradient-7">
            <stop stop-color="#FF7676" offset="0%"></stop>
            <stop stop-color="#E02020" offset="100%"></stop>
        </linearGradient>
        <linearGradient x1="50%" y1="-83.8022079%" x2="50%" y2="135.376179%" id="linearGradient-8">
            <stop stop-color="#FF7676" offset="0%"></stop>
            <stop stop-color="#E02020" offset="100%"></stop>
        </linearGradient>
        <linearGradient x1="50%" y1="-83.8022079%" x2="50%" y2="135.376179%" id="linearGradient-9">
            <stop stop-color="#FF7676" offset="0%"></stop>
            <stop stop-color="#E02020" offset="100%"></stop>
        </linearGradient>
        <linearGradient x1="50%" y1="-83.8022079%" x2="50%" y2="135.376179%" id="linearGradient-10">
            <stop stop-color="#FF7676" offset="0%"></stop>
            <stop stop-color="#E02020" offset="100%"></stop>
        </linearGradient>
        <linearGradient x1="50%" y1="-83.8022079%" x2="50%" y2="135.376179%" id="linearGradient-11">
            <stop stop-color="#FF7676" offset="0%"></stop>
            <stop stop-color="#E02020" offset="100%"></stop>
        </linearGradient>
        <linearGradient x1="50%" y1="-83.8022079%" x2="50%" y2="135.376179%" id="linearGradient-12">
            <stop stop-color="#FF7676" offset="0%"></stop>
            <stop stop-color="#E02020" offset="100%"></stop>
        </linearGradient>
        <linearGradient x1="50%" y1="-83.8022079%" x2="50%" y2="135.376179%" id="linearGradient-13">
            <stop stop-color="#FF7676" offset="0%"></stop>
            <stop stop-color="#E02020" offset="100%"></stop>
        </linearGradient>
        <linearGradient x1="50%" y1="-83.8022079%" x2="50%" y2="135.376179%" id="linearGradient-14">
            <stop stop-color="#FF7676" offset="0%"></stop>
            <stop stop-color="#E02020" offset="100%"></stop>
        </linearGradient>
        <linearGradient x1="50%" y1="-83.8022079%" x2="50%" y2="135.376179%" id="linearGradient-15">
            <stop stop-color="#FF7676" offset="0%"></stop>
            <stop stop-color="#E02020" offset="100%"></stop>
        </linearGradient>
    </defs>
    <g id="Page-1" stroke="none" stroke-width="1" fill="none" fill-rule="evenodd">
        <g id="Desktop-HD" transform="translate(-609.000000, -275.000000)" fill-rule="nonzero">
            <g id="Group" transform="translate(609.000000, 275.000000)">
                <path d="M256,211 C230.847656,211 211,231.738281 211,256 C211,281.183594 231.835938,301 256,301 C280.519531,301 301,281.074219 301,256 C301,231.738281 281.140625,211 256,211 Z" id="Path" fill="url(#linearGradient-1)"></path>
                <path d="M147.425781,300.972656 C128.980469,300.640625 110.398438,297.59375 95.066406,291.960938 C99.28125,310.820312 106.753906,328.429688 116.828125,344.257812 C123.6875,329.464844 134.648438,314.214844 147.425781,300.972656 L147.425781,300.972656 Z" id="Path" fill="url(#linearGradient-2)"></path>
                <path d="M139.023438,139.777344 C138.902344,139.894531 138.804688,140.027344 138.6875,140.144531 C138.371094,144.261719 145.300781,166.511719 171.140625,192.367188 C179.046875,200.273438 187.375,206.589844 195.59375,211.960938 C200.179688,205.683594 205.691406,200.175781 211.964844,195.589844 C206.597656,187.378906 200.277344,179.054688 192.367188,171.144531 C166.460938,145.25 144.191406,138.359375 139.023438,139.777344 Z" id="Path" fill="url(#linearGradient-3)"></path>
                <path d="M300.972656,147.425781 C314.210938,134.652344 329.457031,123.683594 344.242188,116.816406 C328.417969,106.746094 310.8125,99.28125 291.960938,95.066406 C297.59375,110.398438 300.640625,128.980469 300.972656,147.425781 L300.972656,147.425781 Z" id="Path" fill="url(#linearGradient-4)"></path>
                <path d="M95.066406,220.039062 C110.398438,214.40625 128.980469,211.359375 147.425781,211.027344 C134.648438,197.78125 123.691406,182.527344 116.828125,167.738281 C106.753906,183.570312 99.28125,201.179688 95.066406,220.039062 Z" id="Path" fill="url(#linearGradient-5)"></path>
                <path d="M220.039062,95.066406 C201.179688,99.28125 183.570312,106.753906 167.742188,116.828125 C182.53125,123.691406 197.78125,134.648438 211.027344,147.425781 C211.359375,128.980469 214.40625,110.398438 220.039062,95.066406 Z" id="Path" fill="url(#linearGradient-6)"></path>
                <path d="M420.96875,255.390625 C420.96875,255.269531 420.949219,255.15625 420.949219,255.035156 C418.445312,251.964844 397.75,241 361,241 C349.789062,241 339.429688,242.421875 329.828125,244.429688 C330.425781,248.226562 331,252.039062 331,256 C331,259.960938 330.425781,263.773438 329.828125,267.570312 C339.429688,269.578125 349.789062,271 361,271 C397.800781,271 418.511719,259.996094 420.96875,255.390625 Z" id="Path" fill="url(#linearGradient-7)"></path>
                <path d="M371.851562,138.683594 C367.996094,138.289062 345.484375,145.316406 319.632812,171.140625 C311.722656,179.050781 305.402344,187.378906 300.035156,195.585938 C306.308594,200.175781 311.820312,205.683594 316.40625,211.957031 C324.625,206.589844 332.953125,200.269531 340.859375,192.367188 C366.746094,166.464844 373.652344,144.167969 372.222656,139.023438 C372.105469,138.90625 371.972656,138.804688 371.851562,138.683594 Z" id="Path" fill="url(#linearGradient-8)"></path>
                <path d="M372.96875,372.234375 C373.089844,372.113281 373.191406,371.976562 373.3125,371.855469 C373.628906,367.738281 366.699219,345.488281 340.859375,319.632812 C332.949219,311.722656 324.621094,305.402344 316.410156,300.035156 C311.824219,306.3125 306.3125,311.824219 300.035156,316.410156 C305.402344,324.621094 311.722656,332.949219 319.632812,340.859375 C345.515625,366.738281 367.992188,373.78125 372.96875,372.234375 L372.96875,372.234375 Z" id="Path" fill="url(#linearGradient-9)"></path>
                <path d="M256.964844,420.949219 C260.035156,418.445312 271,397.75 271,361 C271,349.796875 269.578125,339.4375 267.570312,329.828125 C263.769531,330.425781 259.960938,331 256,331 C252.039062,331 248.226562,330.425781 244.429688,329.828125 C242.421875,339.429688 241,349.789062 241,361 C241,397.800781 252.003906,418.511719 256.609375,420.96875 C256.730469,420.96875 256.84375,420.949219 256.964844,420.949219 Z" id="Path" fill="url(#linearGradient-10)"></path>
                <path d="M91.03125,256.609375 C91.03125,256.730469 91.050781,256.84375 91.050781,256.964844 C93.554688,260.035156 114.25,271 151,271 C162.210938,271 172.570312,269.578125 182.171875,267.570312 C181.574219,263.773438 181,259.960938 181,256 C181,252.039062 181.574219,248.226562 182.171875,244.429688 C172.570312,242.421875 162.210938,241 151,241 C114.199219,241 93.488281,252.003906 91.03125,256.609375 Z" id="Path" fill="url(#linearGradient-7)"></path>
                <path d="M171.140625,319.632812 C145.253906,345.535156 138.347656,367.832031 139.777344,372.976562 C139.898438,373.097656 140.035156,373.199219 140.15625,373.320312 C144.257812,373.816406 166.515625,366.695312 192.367188,340.859375 C200.273438,332.953125 206.589844,324.625 211.960938,316.40625 C205.683594,311.820312 200.175781,306.308594 195.589844,300.035156 C187.378906,305.402344 179.050781,311.722656 171.140625,319.632812 L171.140625,319.632812 Z" id="Path" fill="url(#linearGradient-11)"></path>
                <path d="M255.390625,91.03125 C255.269531,91.03125 255.15625,91.050781 255.035156,91.050781 C251.964844,93.554688 241,114.25 241,151 C241,162.203125 242.421875,172.5625 244.429688,182.171875 C248.230469,181.574219 252.039062,181 256,181 C259.960938,181 263.769531,181.574219 267.570312,182.171875 C269.578125,172.5625 271,162.203125 271,151 C271,114.199219 259.996094,93.488281 255.390625,91.03125 Z" id="Path" fill="url(#linearGradient-10)"></path>
                <path d="M241,512 C241,512 241,491.41276 241,450.238281 C198.511719,446.980469 159.839844,430.128906 129.289062,403.921875 L86.882812,446.328125 C128.429688,483.289062 182,508.542969 241,512 Z" id="Path" fill="url(#linearGradient-12)"></path>
                <path d="M65.671875,425.117188 L108.078125,382.710938 C81.871094,352.160156 65.019531,313.488281 61.761719,271 L0,271 C3.457031,330 28.710938,383.570312 65.671875,425.117188 Z" id="Path" fill="url(#linearGradient-13)"></path>
                <path d="M382.710938,403.921875 C352.160156,430.128906 313.488281,446.980469 271,450.238281 L271,512 C330,508.542969 383.570312,483.289062 425.117188,446.328125 L382.710938,403.921875 Z" id="Path" fill="url(#linearGradient-12)"></path>
                <path d="M450.238281,271 C446.980469,313.488281 430.128906,352.160156 403.921875,382.710938 L446.328125,425.117188 C483.289062,383.570312 508.542969,330 512,271 L450.238281,271 Z" id="Path" fill="url(#linearGradient-13)"></path>
                <path d="M446.328125,86.882812 L403.921875,129.289062 C430.128906,159.839844 446.980469,198.511719 450.238281,241 L512,241 C508.542969,182 483.289062,128.429688 446.328125,86.882812 Z" id="Path" fill="url(#linearGradient-13)"></path>
                <path d="M0,241 L61.761719,241 C65.019531,198.511719 81.871094,159.839844 108.078125,129.289062 L65.671875,86.882812 C28.710938,128.429688 3.457031,182 0,241 Z" id="Path" fill="url(#linearGradient-13)"></path>
                <path d="M271,61.761719 C313.488281,65.019531 352.160156,81.871094 382.710938,108.078125 L425.117188,65.671875 C383.570312,28.710938 330,3.457031 271,0 L271,61.761719 Z" id="Path" fill="url(#linearGradient-12)"></path>
                <path d="M344.261719,395.171875 C329.46875,388.308594 314.214844,377.347656 300.972656,364.574219 C300.640625,383.019531 297.59375,401.601562 291.960938,416.933594 C310.820312,412.71875 328.429688,405.246094 344.261719,395.171875 L344.261719,395.171875 Z" id="Path" fill="url(#linearGradient-14)"></path>
                <path d="M364.574219,300.972656 C377.351562,314.21875 388.308594,329.472656 395.171875,344.261719 C405.246094,328.433594 412.71875,310.820312 416.933594,291.960938 C401.601562,297.59375 383.019531,300.640625 364.574219,300.972656 L364.574219,300.972656 Z" id="Path" fill="url(#linearGradient-5)"></path>
                <path d="M220.039062,416.933594 C214.40625,401.601562 211.359375,383.019531 211.027344,364.574219 C197.777344,377.347656 182.519531,388.300781 167.722656,395.160156 C183.554688,405.242188 201.171875,412.71875 220.039062,416.933594 Z" id="Path" fill="url(#linearGradient-15)"></path>
                <path d="M364.574219,211.027344 C383.019531,211.359375 401.601562,214.40625 416.933594,220.039062 C412.71875,201.179688 405.246094,183.570312 395.171875,167.742188 C388.3125,182.535156 377.351562,197.785156 364.574219,211.027344 L364.574219,211.027344 Z" id="Path" fill="url(#linearGradient-2)"></path>
                <path d="M129.289062,108.078125 C159.839844,81.871094 198.511719,65.019531 241,61.761719 L241,0 C182,3.457031 128.429688,28.710938 86.882812,65.671875 L129.289062,108.078125 Z" id="Path" fill="url(#linearGradient-12)"></path>
            </g>
        </g>
    </g>
</svg>