<svg height="512pt" viewBox="0 0 512 512" width="512pt" xmlns="http://www.w3.org/2000/svg"><path d="m512 256c0 141.386719-114.613281 256-256 256s-256-114.613281-256-256 114.613281-256 256-256 256 114.613281 256 256zm0 0" fill="#ffda00"/><path d="m267.148438 511.742188c136.210937-5.839844 244.851562-118.09375 244.851562-255.742188 0-9.964844-.589844-19.792969-1.695312-29.460938l-124.636719-124.636718-20.664063 39.335937-24.667968-24.667969-1.109376 1.5625-50.226562-50.230468-8.730469 123.273437-103.269531-103.273437 15.996094 87.085937-39.558594 10.019531-41.101562-41.101562-4.667969 80 48.121093 48.121094-25.453124 15.878906 131.96875 131.96875-50.800782 36.222656zm0 0" fill="#ffb000"/><path d="m393.667969 243.902344 35.332031-49.332032-12.667969-9.332031-36 34.664063-43.933593 10.984375 14.269531-24.316407-20.335938 9.332032-14.0625 20.019531-35.410156 8.851563-.363281-3.871094 2.050781-22.0625 89.785156-60.269532 13.335938-56.667968-22.667969-7.332032-11.332031 42.667969-11.335938 5.40625v-26.074219l-12.832031 2-11.089844 35.488282-29.148437 13.902344 1.738281-18.722657v-81.335937h-24v28.667968l-20-13.332031-4.667969 14 24.667969 24.664063v27.335937l-13.367188 36.582031-61.300781-47.917968-13.332031-50-24 5.335937 16.667969 61.164063 17.621093 17.054687-34.289062-2.21875v16l62.289062 13.3125 23.410157 22.65625-7.195313 19.695313-1.292968 13.878906-30.320313-15.34375-9.558594-35.535156h-16.664062l2.945312 23.753906-45.613281-23.085938-18.667969-60.667968-17.332031 6.667968 12.667969 73.332032 50.875 32.601562-36.210938 16.734375 8 14.664063 55.394531-13.980469 40.304688 25.828125-14.527344 156.347656h88.992188l-15.957032-171.730468 59.5625-22.085938 58.230469 25.621094 12-12-41.714843-24.191406zm0 0" fill="#805142"/><path d="m393.667969 243.902344 35.332031-49.332032-12.667969-9.332031-36 34.664063-43.933593 10.984375 14.269531-24.316407-20.335938 9.332032-14.0625 20.019531-35.410156 8.851563-.363281-3.871094 2.050781-22.0625 89.785156-60.269532 13.335938-56.667968-22.667969-7.332032-11.332031 42.667969-11.335938 5.40625v-26.074219l-12.832031 2-11.089844 35.488282-29.148437 13.902344 1.738281-18.722657v-81.335937h-24v28.667968l-9.355469-6.238281v22.214844l9.355469 9.355469v27.335937l-9.355469 25.605469v281.253906h44.851563l-15.957032-171.730468 59.5625-22.085938 58.230469 25.621094 12-12-41.714843-24.191406zm0 0" fill="#5e382c"/></svg>